<svg width="202" height="267" viewBox="0 0 202 267" fill="none" xmlns="http://www.w3.org/2000/svg">
<path fill-rule="evenodd" clip-rule="evenodd" d="M58.4279 44.6038C54.5573 44.3372 55.3356 44.7255 52.4679 38.5384C49.9166 33.1459 52.2712 34.659 46.5507 32.9679C41.4721 31.3777 34.287 27.7734 30.3385 26.647C29.0105 29.6139 29.3408 44.48 28.2004 49.1832C27.1467 48.7868 26.3761 48.4068 25.2624 47.9432C23.4297 47.3119 23.7032 47.6115 23.2674 45.2932C22.2061 40.3109 18.861 24.2749 17.8 21.4437C14.0914 19.8237 3.67753 16.0536 1.54492 13.4071C0.542837 12.155 -0.835595 9.88827 1.0315 8.87074C5.63146 6.42692 13.6135 11.0586 19.3599 13.5347C21.6722 14.5372 21.1151 14.2369 23.3513 12.8672C25.8789 11.3689 43.2676 0.654872 44.6301 0.61679C45.0664 0.630535 48.2794 2.01617 48.8434 2.32546C47.6777 3.80144 46.3756 5.26447 44.9888 6.65243L37.1491 15.1663C35.8558 16.3467 34.3902 18.0964 33.3713 19.4231C36.043 20.5094 38.699 21.5947 41.4302 22.764C55.33 28.2202 50.3705 29.3594 58.0027 26.7266C62.26 25.2823 64.0159 23.5423 66.2597 26.9112C59.6898 31.9466 57.3677 37.0416 58.4279 44.6038ZM63.997 35.5989C62.6098 34.8357 61.2643 36.8725 62.7114 37.8558L64.87 38.9985C66.1201 39.7495 67.602 37.7255 66.1549 36.7423L63.997 35.5989ZM198.71 265.31C198.744 267.033 201.211 266.674 201.16 265.103L201.092 263.807C200.989 262.008 198.522 262.368 198.565 263.947L198.71 265.31ZM198.241 256.4C198.352 258.053 200.81 257.839 200.768 256.26L200.639 253.676C200.528 252.023 197.992 252.308 198.112 253.953L198.241 256.4ZM197.541 246.479C197.583 248.057 200.11 247.918 200.068 246.202L199.862 243.689C199.674 242.106 197.146 242.245 197.327 243.974L197.541 246.479ZM196.559 236.542C196.737 238.27 199.289 237.71 199.017 236.19L198.666 233.672C198.485 231.944 195.926 232.511 196.207 234.023L196.559 236.542ZM195.208 226.666C195.464 228.323 197.939 227.835 197.742 226.244L197.315 223.796C197.058 222.139 194.591 222.498 194.848 224.156L195.208 226.666ZM193.642 216.864C193.907 218.376 196.365 218.024 196.041 216.292L195.613 213.844C195.347 212.332 192.889 212.684 193.145 214.342L193.642 216.864ZM191.648 207.041C192.119 208.778 194.466 207.994 194.193 206.474L193.619 204.021C193.217 202.359 190.802 203.069 191.143 204.663L191.648 207.041ZM189.423 197.429C189.903 199.021 192.249 198.236 191.839 196.72L191.274 194.26C190.794 192.668 188.379 193.377 188.859 194.969L189.423 197.429ZM186.763 187.803C187.241 189.396 189.656 188.686 189.247 187.015L188.527 184.696C188.117 183.18 185.71 183.743 186.112 185.406L186.763 187.803ZM183.886 178.389C184.511 179.986 186.798 178.981 186.241 177.46L185.454 175.066C184.897 173.544 182.542 174.473 183.098 175.995L183.886 178.389ZM176.952 159.799C177.723 161.4 179.882 160.101 179.24 158.794L178.23 156.467C177.459 154.866 175.3 156.165 175.943 157.471L176.952 159.799ZM172.895 150.777C173.528 152.228 175.824 151.078 175.19 149.627L174.103 147.37C173.333 145.906 171.037 147.056 171.808 148.519L172.895 150.777ZM168.46 141.962C169.102 143.267 171.449 142.346 170.687 140.737L169.524 138.549C168.607 136.943 166.516 138.455 167.296 139.774L168.46 141.962ZM163.742 133.282C164.589 134.675 166.68 133.301 165.901 131.983L164.592 129.791C163.744 128.397 161.584 129.697 162.424 131.081L163.742 133.282ZM158.57 124.864C159.35 126.182 161.577 124.957 160.739 123.42C160.276 122.758 159.823 121.951 159.351 121.298C158.573 119.979 156.345 121.204 157.184 122.742C157.655 123.395 158.186 124.132 158.57 124.864ZM153.107 116.59C154.101 117.988 156.139 116.402 155.137 115.149L153.751 113.165C152.758 111.767 150.719 113.353 151.721 114.606L153.107 116.59ZM147.26 108.652C148.261 109.904 150.292 108.464 149.298 107.066L147.766 105.078C146.91 103.83 144.742 105.274 145.795 106.738L147.26 108.652ZM141.189 100.933C142.259 102.261 144.092 100.45 143.082 99.3435L141.472 97.424C140.402 96.0975 138.5 97.8335 139.579 99.0152L141.189 100.933ZM134.664 93.4759C135.743 94.6583 137.713 92.997 136.565 91.7399C136.026 91.149 135.419 90.4836 134.879 89.892C133.868 88.7848 131.83 90.3715 132.977 91.6279C133.592 92.3022 134.124 92.885 134.664 93.4759ZM127.839 86.3077C129.208 87.4992 130.828 85.6088 129.673 84.4972L127.977 82.7946C126.753 81.6076 124.988 83.4935 126.144 84.6059L127.839 86.3077ZM120.859 79.4184C122.016 80.5301 123.781 78.6442 122.624 77.5325L120.783 75.8255C119.628 74.7138 117.863 76.5997 119.018 77.7114L120.859 79.4184ZM113.564 72.8021C114.652 73.8385 116.486 72.028 115.184 70.9118C114.567 70.3917 113.882 69.7956 113.266 69.2748C112.178 68.2385 110.344 70.049 111.646 71.1652C112.263 71.6853 112.879 72.206 113.564 72.8021ZM105.976 66.4677C107.355 67.5131 108.769 65.4144 107.535 64.5108L105.609 62.865C104.222 61.9651 102.732 63.9966 103.974 64.8927L105.976 66.4677ZM98.0725 60.4062C99.3823 61.3769 101.01 59.3574 99.7087 58.3793L97.6446 56.8744C96.4025 55.9793 94.8441 57.9358 96.1539 58.9066L98.0725 60.4062ZM90.1514 54.6354C91.3162 55.6015 92.9434 53.5824 91.573 52.529L89.5012 51.1699C88.0451 50.1947 86.7684 52.4434 88.0788 53.2769L90.1514 54.6354ZM81.8605 49.2173C83.3168 50.0548 84.6701 47.8736 83.2145 47.0354L81.1419 45.6769C79.7631 44.7686 78.4092 46.9505 79.7879 47.8588L81.8605 49.2173ZM73.4084 43.9311C74.7872 44.8395 76.2864 42.6624 74.7617 41.7499L72.6806 40.5365C71.3703 39.7031 69.8802 41.7345 71.3274 42.7177L73.4084 43.9311Z" fill="#CCCCCC"/>
<path d="M183.021 168.697C183.577 170.218 181.29 171.222 180.666 169.626L179.877 167.232C179.321 165.71 181.677 164.781 182.233 166.303L183.021 168.697Z" fill="#CCCCCC"/>
</svg>
