<svg width="40" height="38" viewBox="0 0 40 38" fill="none" xmlns="http://www.w3.org/2000/svg">
<path d="M27.8648 31.92L26.7981 23.38C26.647 22.1704 26.0591 21.0576 25.1451 20.251C24.2311 19.4444 23.0539 18.9995 21.8348 19H18.1615C16.943 19.0003 15.7666 19.4456 14.8533 20.2521C13.94 21.0587 13.3526 22.1709 13.2015 23.38L12.1331 31.92C12.0745 32.3892 12.1164 32.8655 12.2559 33.3172C12.3955 33.769 12.6296 34.1859 12.9427 34.5403C13.2557 34.8946 13.6406 35.1783 14.0717 35.3725C14.5028 35.5667 14.9703 35.667 15.4431 35.6667H24.5565C25.0292 35.6668 25.4965 35.5663 25.9274 35.372C26.3583 35.1777 26.743 34.894 27.0559 34.5397C27.3687 34.1853 27.6027 33.7685 27.7421 33.3169C27.8816 32.8652 27.9234 32.389 27.8648 31.92V31.92Z" stroke="#F66A0A" stroke-width="3" stroke-linecap="round" stroke-linejoin="round"/>
<path d="M20 12.3333C22.7614 12.3333 25 10.0948 25 7.33334C25 4.57192 22.7614 2.33334 20 2.33334C17.2386 2.33334 15 4.57192 15 7.33334C15 10.0948 17.2386 12.3333 20 12.3333Z" stroke="#F66A0A" stroke-width="3"/>
<path d="M6.66659 17.3334C8.50753 17.3334 9.99992 15.841 9.99992 14C9.99992 12.1591 8.50753 10.6667 6.66659 10.6667C4.82564 10.6667 3.33325 12.1591 3.33325 14C3.33325 15.841 4.82564 17.3334 6.66659 17.3334Z" stroke="#F66A0A" stroke-width="3"/>
<path d="M33.3333 17.3334C35.1743 17.3334 36.6667 15.841 36.6667 14C36.6667 12.1591 35.1743 10.6667 33.3333 10.6667C31.4924 10.6667 30 12.1591 30 14C30 15.841 31.4924 17.3334 33.3333 17.3334Z" stroke="#F66A0A" stroke-width="3"/>
<path d="M6.66657 22.3334H6.15657C5.3675 22.3333 4.60399 22.6131 4.00186 23.1231C3.39973 23.633 2.99803 24.3401 2.86823 25.1184L2.31323 28.4517C2.23359 28.9293 2.25893 29.4185 2.38751 29.8853C2.51609 30.352 2.74482 30.7852 3.05778 31.1546C3.37074 31.5241 3.76042 31.8209 4.19972 32.0245C4.63902 32.228 5.11739 32.3334 5.60157 32.3334H11.6666M33.3332 22.3334H33.8432C34.6323 22.3333 35.3958 22.6131 35.9979 23.1231C36.6001 23.633 37.0018 24.3401 37.1316 25.1184L37.6866 28.4517C37.7662 28.9293 37.7409 29.4185 37.6123 29.8853C37.4837 30.352 37.255 30.7852 36.942 31.1546C36.6291 31.5241 36.2394 31.8209 35.8001 32.0245C35.3608 32.228 34.8824 32.3334 34.3982 32.3334H28.3332" stroke="#F66A0A" stroke-width="3" stroke-linecap="round" stroke-linejoin="round"/>
</svg>
